<?xml version="1.0" encoding="UTF-8"?>
<!DOCTYPE svg PUBLIC "-//W3C//DTD SVG 1.1//EN" "http://www.w3.org/Graphics/SVG/1.1/DTD/svg11.dtd">
<!-- Creator: CorelDRAW X8 -->
<svg xmlns="http://www.w3.org/2000/svg" xml:space="preserve" width="200px" height="200px" version="1.1" style="shape-rendering:geometricPrecision; text-rendering:geometricPrecision; image-rendering:optimizeQuality; fill-rule:evenodd; clip-rule:evenodd"
viewBox="0 0 200 200"
 xmlns:xlink="http://www.w3.org/1999/xlink">
 <defs>
  <style type="text/css">
   <![CDATA[
    .fil0 {fill:black}
    .fil1 {fill:white}
   ]]>
  </style>
 </defs>
 <g id="Слой_x0020_1">
  <metadata id="CorelCorpID_0Corel-Layer"/>
  <circle class="fil0" cx="100" cy="100" r="98"/>
  <path class="fil1" d="M72 133c-6,0 -11,5 -11,11 0,7 5,12 11,12 6,0 11,-5 11,-12 0,-6 -5,-11 -11,-11l0 0zm-33 -89l0 12 11 0 20 42 -7 13c-1,2 -2,4 -2,6 0,6 5,11 11,11l67 0 0 -11 -64 0c-1,0 -2,-1 -2,-2l0 0 5 -9 42 0c4,0 8,-3 9,-6l20 -36c1,-1 1,-2 1,-3 0,-3 -3,-5 -6,-5l-82 0 -5 -11 -18 -1zm89 89c-6,0 -11,5 -11,11 0,7 5,11 11,11 6,0 11,-4 11,-11 0,-6 -5,-11 -11,-11z"/>
 </g>
</svg>
